<svg width="74" height="24" viewBox="0 0 74 24" fill="none" xmlns="http://www.w3.org/2000/svg">
<g clip-path="url(#clip0_1_863)">
<path d="M35.304 20.876L35.286 20.914C34.244 22.926 32.591 23.904 30.23 23.904C27.172 23.904 24.952 21.735 24.952 18.751C24.952 15.859 27.105 13.811 30.435 13.53L35.12 13.131L35.182 13.126V11.964C35.182 10.265 34.24 9.366 32.457 9.366C30.679 9.366 29.564 10.283 29.531 11.762H25.519C25.678 8.378 28.392 6.279 32.622 6.279C36.758 6.279 39.13 8.374 39.13 12.03V20.416H41.987V23.505H35.581L35.548 20.945V20.876H35.304ZM35.182 16.889V16.148L31.378 16.477C31.29 16.488 29.238 16.726 28.757 17.627C28.54 18.032 28.501 18.543 28.65 19.03C28.771 19.43 29.075 19.994 29.825 20.39C30.181 20.612 30.652 20.748 31.223 20.796L31.284 20.804C31.314 20.809 31.346 20.813 31.379 20.816L31.423 20.811C31.512 20.814 31.6 20.816 31.693 20.816C33.748 20.816 35.182 19.201 35.182 16.889ZM10.052 0.939999C10.113 0.946999 10.173 0.955999 10.223 0.965999C11.96 1.195 13.554 2.048 14.706 3.364C17.215 6.232 17.074 10.545 14.383 13.244C13.031 14.598 11.194 15.36 9.278 15.36C9.209 15.36 9.143 15.356 9.076 15.351C9.038 15.349 9 15.346 8.962 15.345H4.205V23.508H0V0.896999H9.295L9.312 0.898999C9.552 0.898999 9.793 0.910999 10.034 0.935999L10.052 0.939999ZM11.301 4.607H4.205V11.715H11.301V4.604V4.607Z" fill="white"/>
<path d="M18.491 23.532H22.533V0.829H18.491V23.532ZM44.001 4.917H48.015V0.897H44.001V4.917ZM65.393 23.504V12.464C65.393 8.417 63.499 6.279 59.914 6.279C57.67 6.279 56.049 7.204 54.958 9.105L54.828 9.33V6.677H50.816V23.504H54.83V13.76C54.83 11.193 56.292 9.533 58.553 9.533C60.454 9.533 61.379 10.588 61.379 12.762V23.505H65.393V23.504ZM68.127 23.504H73.331V18.293H68.127V23.505V23.504ZM48.005 23.532H43.963V6.72H48.005V23.532Z" fill="white"/>
</g>
<defs>
<clipPath id="clip0_1_863">
<rect width="74" height="24" fill="white"/>
</clipPath>
</defs>
</svg>
